<mxfile host="app.diagrams.net" modified="2024-03-05T09:55:19.234Z" agent="Mozilla/5.0 (Windows NT 10.0; Win64; x64) AppleWebKit/537.36 (KHTML, like Gecko) Chrome/122.0.0.0 Safari/537.36" etag="V2Cl_IVz2AQGjTzOAyLP" version="23.1.8" type="github">
  <diagram name="페이지-1" id="2TWUUUYWlqyvGFhY7QsK">
    <mxGraphModel dx="574" dy="291" grid="1" gridSize="10" guides="1" tooltips="1" connect="1" arrows="1" fold="1" page="1" pageScale="1" pageWidth="827" pageHeight="1169" math="0" shadow="0">
      <root>
        <mxCell id="0" />
        <mxCell id="1" parent="0" />
        <mxCell id="YR_tlpugdxNq_lBeiD9A-9" value="300~699 response" style="edgeStyle=orthogonalEdgeStyle;rounded=0;orthogonalLoop=1;jettySize=auto;html=1;exitX=0.5;exitY=1;exitDx=0;exitDy=0;entryX=0.5;entryY=0;entryDx=0;entryDy=0;" edge="1" parent="1" source="YR_tlpugdxNq_lBeiD9A-1" target="YR_tlpugdxNq_lBeiD9A-2">
          <mxGeometry relative="1" as="geometry" />
        </mxCell>
        <mxCell id="YR_tlpugdxNq_lBeiD9A-1" value="&lt;b&gt;TU&lt;/b&gt;" style="rounded=0;whiteSpace=wrap;html=1;" vertex="1" parent="1">
          <mxGeometry x="120" y="80" width="160" height="40" as="geometry" />
        </mxCell>
        <mxCell id="YR_tlpugdxNq_lBeiD9A-2" value="&lt;b&gt;ST&lt;br&gt;&quot;Completed&quot;&lt;br&gt;&lt;/b&gt;" style="rounded=0;whiteSpace=wrap;html=1;" vertex="1" parent="1">
          <mxGeometry x="120" y="160" width="160" height="40" as="geometry" />
        </mxCell>
        <mxCell id="YR_tlpugdxNq_lBeiD9A-15" style="edgeStyle=orthogonalEdgeStyle;rounded=0;orthogonalLoop=1;jettySize=auto;html=1;exitX=0.75;exitY=0;exitDx=0;exitDy=0;entryX=0.75;entryY=1;entryDx=0;entryDy=0;" edge="1" parent="1" source="YR_tlpugdxNq_lBeiD9A-6" target="YR_tlpugdxNq_lBeiD9A-2">
          <mxGeometry relative="1" as="geometry" />
        </mxCell>
        <mxCell id="YR_tlpugdxNq_lBeiD9A-6" value="&lt;b&gt;Transaction Layer&lt;/b&gt;" style="rounded=0;whiteSpace=wrap;html=1;" vertex="1" parent="1">
          <mxGeometry x="120" y="240" width="160" height="40" as="geometry" />
        </mxCell>
        <mxCell id="YR_tlpugdxNq_lBeiD9A-14" style="edgeStyle=orthogonalEdgeStyle;rounded=0;orthogonalLoop=1;jettySize=auto;html=1;exitX=0.25;exitY=1;exitDx=0;exitDy=0;entryX=0.25;entryY=0;entryDx=0;entryDy=0;" edge="1" parent="1" source="YR_tlpugdxNq_lBeiD9A-2" target="YR_tlpugdxNq_lBeiD9A-6">
          <mxGeometry relative="1" as="geometry">
            <mxPoint x="160" y="220" as="targetPoint" />
            <Array as="points">
              <mxPoint x="160" y="220" />
              <mxPoint x="160" y="220" />
            </Array>
          </mxGeometry>
        </mxCell>
        <mxCell id="YR_tlpugdxNq_lBeiD9A-16" value="300~699 response" style="edgeLabel;html=1;align=center;verticalAlign=middle;resizable=0;points=[];" vertex="1" connectable="0" parent="YR_tlpugdxNq_lBeiD9A-14">
          <mxGeometry x="-0.15" relative="1" as="geometry">
            <mxPoint as="offset" />
          </mxGeometry>
        </mxCell>
        <mxCell id="YR_tlpugdxNq_lBeiD9A-17" value="신뢰성이 없는 전송방식의 경우&lt;br&gt;타이머 G T1 초 후 발동" style="text;html=1;align=left;verticalAlign=middle;whiteSpace=wrap;rounded=0;" vertex="1" parent="1">
          <mxGeometry x="290" y="160" width="170" height="40" as="geometry" />
        </mxCell>
        <mxCell id="YR_tlpugdxNq_lBeiD9A-18" value="Timer G :&amp;nbsp;&lt;em style=&quot;background-color: initial;&quot;&gt;response 를 다시 한 번 전송&lt;/em&gt;&lt;br&gt;&amp;nbsp;- &quot;Proceeding&quot; 상태에서 신뢰성 없는 Response를 전달해야할 때&amp;nbsp;&lt;span style=&quot;background-color: initial;&quot;&gt;T1 초 후에 발동&lt;/span&gt;&lt;br&gt;&lt;span style=&quot;&quot;&gt;&lt;span style=&quot;&quot;&gt;&amp;nbsp;&amp;nbsp;&amp;nbsp;&amp;nbsp;&lt;/span&gt;&lt;/span&gt;(단, 신뢰성 있는 Response 는 발동하지 않음)&lt;br&gt;&amp;nbsp;-&amp;nbsp;&lt;br&gt;Timer H :&quot;Completed&quot; 상태에서&amp;nbsp;&lt;span style=&quot;background-color: initial;&quot;&gt;발동시 ACK 수신 되지 않음 의미&lt;/span&gt;&amp;nbsp;&lt;span style=&quot;border-color: var(--border-color); background-color: initial;&quot;&gt;&quot;&lt;/span&gt;&lt;span style=&quot;border-color: var(--border-color); background-color: initial;&quot;&gt;Terminated&lt;/span&gt;&lt;span style=&quot;border-color: var(--border-color); background-color: initial;&quot;&gt;&quot; 상태로 전환&lt;/span&gt;&lt;br&gt;&amp;nbsp;- &quot;&lt;strong style=&quot;background-color: initial;&quot;&gt;Completed&lt;/strong&gt;&quot; 상태에서&amp;nbsp;&lt;span style=&quot;background-color: initial;&quot;&gt;&lt;/span&gt;&lt;strong style=&quot;background-color: initial;&quot;&gt;모든 전송 방식&lt;/strong&gt;&lt;span style=&quot;background-color: initial;&quot;&gt;에 대해 &lt;/span&gt;&lt;strong style=&quot;background-color: initial;&quot;&gt;&lt;span data-text-custom-color=&quot;#bf2600&quot; style=&quot;--custom-palette-color: var(--ds-text-accent-red, #BF2600)&quot; class=&quot;fabric-text-color-mark&quot;&gt;타이머 H&lt;/span&gt; &lt;/strong&gt;&lt;span style=&quot;background-color: initial;&quot;&gt;가 &lt;/span&gt;&lt;strong style=&quot;background-color: initial;&quot;&gt;64&lt;/strong&gt;&lt;em style=&quot;background-color: initial;&quot;&gt;&lt;strong&gt;T1 초 후에 발동하도록 설정&lt;/strong&gt;&lt;/em&gt;&lt;br&gt;Timer B :&amp;nbsp;&lt;br&gt;Timer I : &quot;Confirmed&lt;span style=&quot;background-color: initial;&quot;&gt;&quot; 상태에서 발동시&amp;nbsp;&lt;/span&gt;&lt;span style=&quot;background-color: initial;&quot;&gt;&quot;&lt;/span&gt;&lt;span style=&quot;background-color: initial;&quot;&gt;Terminated&lt;/span&gt;&lt;span style=&quot;background-color: initial;&quot;&gt;&quot; 상태로 전환&lt;/span&gt;&lt;br&gt;&amp;nbsp;- 신뢰성 없는경우 : T4초 후 발동&lt;br&gt;&amp;nbsp;- 신뢰성 있는 경우 : 0초&lt;br&gt;Timer J&lt;span style=&quot;&quot;&gt;&lt;span style=&quot;&quot;&gt;&amp;nbsp;&amp;nbsp;&amp;nbsp;&amp;nbsp;&lt;/span&gt;&lt;/span&gt;:&lt;span style=&quot;&quot;&gt;&lt;span style=&quot;&quot;&gt;&amp;nbsp;&amp;nbsp;&amp;nbsp;&amp;nbsp;&lt;/span&gt;&lt;/span&gt;" style="text;html=1;align=left;verticalAlign=middle;whiteSpace=wrap;rounded=0;" vertex="1" parent="1">
          <mxGeometry x="40" y="320" width="500" height="200" as="geometry" />
        </mxCell>
      </root>
    </mxGraphModel>
  </diagram>
</mxfile>
